<svg width="42" height="48" viewBox="0 0 42 48" fill="none" xmlns="http://www.w3.org/2000/svg">
<path d="M6 4.80006C5.58579 4.80006 5.25 5.13582 5.25 5.55006V34.2009C5.25 34.4688 5.39307 34.7166 5.62527 34.8504L20.2014 43.2582C20.4283 43.389 20.7069 43.392 20.9366 43.2663L36.3603 34.8144C36.6006 34.6827 36.75 34.4307 36.75 34.1568V5.55006C36.75 5.13582 36.4143 4.80006 36 4.80006H6ZM0.75 5.55006C0.75 2.65055 3.1005 0.300049 6 0.300049H36C38.8995 0.300049 41.25 2.65056 41.25 5.55006V34.1568C41.25 36.0744 40.2045 37.8393 38.523 38.7609L23.099 47.2125C21.4915 48.0933 19.5409 48.072 17.953 47.1561L3.37686 38.7486C1.75146 37.8111 0.75 36.0774 0.75 34.2009V5.55006ZM12 13.0501C12 11.8074 13.0074 10.8001 14.25 10.8001H28.0962C29.3388 10.8001 30.3462 11.8074 30.3462 13.0501V31.3386C30.3462 32.1906 29.8647 32.9697 29.1024 33.351L22.1793 36.8124C21.5459 37.1292 20.8003 37.1292 20.1668 36.8124L13.2438 33.351C12.4815 32.9697 12 32.1906 12 31.3386V29.6077C12 28.3651 13.0074 27.3577 14.25 27.3577C15.4926 27.3577 16.5 28.3651 16.5 29.6077V29.9479L21.1731 32.2845L25.8462 29.9479V24.9347H18C16.7574 24.9347 15.75 23.9273 15.75 22.6847C15.75 21.442 16.7574 20.4347 18 20.4347H25.8462V15.3001H14.25C13.0074 15.3001 12 14.2927 12 13.0501Z" fill="black"/>
</svg>
