<svg width="48" height="48" viewBox="0 0 48 48" fill="none" xmlns="http://www.w3.org/2000/svg">
<path d="M9 4.80006C8.58579 4.80006 8.25 5.13582 8.25 5.55006V34.2009C8.25 34.4688 8.39307 34.7166 8.62527 34.8504L23.2014 43.2582C23.4283 43.389 23.7069 43.392 23.9366 43.2663L39.3603 34.8144C39.6006 34.6827 39.75 34.4307 39.75 34.1568V5.55006C39.75 5.13582 39.4143 4.80006 39 4.80006H9ZM3.75 5.55006C3.75 2.65055 6.1005 0.300049 9 0.300049H39C41.8995 0.300049 44.25 2.65056 44.25 5.55006V34.1568C44.25 36.0744 43.2045 37.8393 41.523 38.7609L26.099 47.2125C24.4915 48.0933 22.5409 48.072 20.953 47.1561L6.37686 38.7486C4.75146 37.8111 3.75 36.0774 3.75 34.2009V5.55006ZM15 13.0501C15 11.8074 16.0074 10.8001 17.25 10.8001H31.0962C32.3388 10.8001 33.3462 11.8074 33.3462 13.0501V31.3386C33.3462 32.1906 32.8647 32.9697 32.1024 33.351L25.1793 36.8124C24.5459 37.1292 23.8003 37.1292 23.1668 36.8124L16.2438 33.351C15.4815 32.9697 15 32.1906 15 31.3386V29.6077C15 28.3651 16.0074 27.3577 17.25 27.3577C18.4926 27.3577 19.5 28.3651 19.5 29.6077V29.9479L24.1731 32.2845L28.8462 29.9479V24.9347H21C19.7574 24.9347 18.75 23.9273 18.75 22.6847C18.75 21.442 19.7574 20.4347 21 20.4347H28.8462V15.3001H17.25C16.0074 15.3001 15 14.2927 15 13.0501Z" fill="black"/>
</svg>
