<svg width="48" height="48" viewBox="0 0 48 48" fill="none" xmlns="http://www.w3.org/2000/svg">
<path d="M24 3.9999C19.2373 3.98193 14.6245 5.6642 10.9915 8.74403C7.35858 11.8239 4.94396 16.0991 4.18209 20.8005C3.42022 25.5019 4.36112 30.3208 6.83551 34.3904C9.3099 38.4599 13.1553 41.5128 17.68 42.9999C18.68 43.1599 19 42.5399 19 41.9999V38.6199C13.46 39.8199 12.28 35.9999 12.28 35.9999C11.9065 34.7577 11.0968 33.6924 9.99998 32.9999C8.17998 31.7599 10.14 31.7999 10.14 31.7999C10.7678 31.8811 11.3691 32.1032 11.899 32.4495C12.4289 32.7958 12.8736 33.2575 13.2 33.7999C13.7555 34.7877 14.6786 35.5163 15.7685 35.8272C16.8584 36.138 18.0269 36.006 19.02 35.4599C19.1111 34.446 19.5573 33.4969 20.28 32.7799C16 32.3399 11.24 30.6199 11.24 22.9999C11.1821 21.0028 11.8988 19.0607 13.24 17.5799C12.6311 15.8588 12.7026 13.97 13.44 12.2999C13.44 12.2999 15.12 11.7599 18.94 14.2999C22.2152 13.4195 25.6648 13.4195 28.94 14.2999C32.76 11.7199 34.44 12.2999 34.44 12.2999C35.1774 13.97 35.2489 15.8588 34.64 17.5799C35.9812 19.0607 36.6978 21.0028 36.64 22.9999C36.64 30.6399 31.96 32.3199 27.5 32.8199C27.9803 33.3027 28.3519 33.8826 28.5899 34.5207C28.8279 35.1588 28.9268 35.8405 28.88 36.5199V41.9999C28.88 42.5399 29.2 43.1799 30.22 42.9999C34.7364 41.5154 38.5762 38.4707 41.0512 34.4117C43.5261 30.3526 44.4742 25.5447 43.7254 20.8499C42.9767 16.1552 40.5801 11.8807 36.9653 8.79288C33.3505 5.70505 28.754 4.00583 24 3.9999Z" fill="white"/>
</svg>
