<svg width="24" height="24" viewBox="0 0 24 24" fill="none" xmlns="http://www.w3.org/2000/svg">
<g clip-path="url(#clip0_16_277)">
<path d="M12 2.00007C9.61864 1.99109 7.31224 2.83222 5.49577 4.37213C3.67929 5.91205 2.47198 8.04965 2.09104 10.4004C1.71011 12.7511 2.18056 15.1605 3.41776 17.1953C4.65495 19.2301 6.57767 20.7565 8.83999 21.5001C9.33999 21.5801 9.49999 21.2701 9.49999 21.0001V19.3101C6.72999 19.9101 6.13999 18.0001 6.13999 18.0001C5.95324 17.379 5.54839 16.8463 4.99999 16.5001C4.08999 15.8801 5.06999 15.9001 5.06999 15.9001C5.38389 15.9407 5.68455 16.0517 5.94949 16.2249C6.21444 16.398 6.43681 16.6289 6.59999 16.9001C6.87777 17.394 7.33931 17.7583 7.88425 17.9137C8.42918 18.0691 9.01345 18.0031 9.50999 17.7301C9.55555 17.2231 9.77867 16.7486 10.14 16.3901C7.99999 16.1701 5.61999 15.3101 5.61999 11.5001C5.59106 10.5015 5.94938 9.53048 6.61999 8.79007C6.31553 7.9295 6.3513 6.98514 6.71999 6.15007C6.71999 6.15007 7.55999 5.88007 9.46999 7.15007C11.1076 6.70985 12.8324 6.70985 14.47 7.15007C16.38 5.86007 17.22 6.15007 17.22 6.15007C17.5887 6.98514 17.6245 7.9295 17.32 8.79007C17.9906 9.53048 18.3489 10.5015 18.32 11.5001C18.32 15.3201 15.98 16.1601 13.75 16.4101C13.9902 16.6515 14.176 16.9414 14.295 17.2605C14.414 17.5795 14.4634 17.9203 14.44 18.2601V21.0001C14.44 21.2701 14.6 21.5901 15.11 21.5001C17.3682 20.7578 19.2881 19.2355 20.5256 17.206C21.763 15.1764 22.2371 12.7725 21.8627 10.4251C21.4883 8.07773 20.29 5.94048 18.4826 4.39656C16.6753 2.85265 14.377 2.00304 12 2.00007Z" fill="white"/>
</g>
<defs>
<clipPath id="clip0_16_277">
<rect width="24" height="24" fill="white"/>
</clipPath>
</defs>
</svg>
