<svg width="48" height="48" viewBox="0 0 48 48" fill="none" xmlns="http://www.w3.org/2000/svg">
<path d="M9 4.5C8.58579 4.5 8.25 4.83579 8.25 5.25V33.9009C8.25 34.1688 8.39307 34.4166 8.62527 34.5504L23.2014 42.9582C23.4283 43.089 23.7069 43.092 23.9366 42.9663L39.3603 34.5144C39.6006 34.3827 39.75 34.1307 39.75 33.8568V5.25C39.75 4.83579 39.4143 4.5 39 4.5H9ZM3.75 5.25C3.75 2.35051 6.1005 0 9 0H39C41.8995 0 44.25 2.35051 44.25 5.25V33.8568C44.25 35.7744 43.2045 37.5393 41.523 38.4609L26.099 46.9125C24.4915 47.7933 22.5409 47.772 20.953 46.8561L6.37686 38.4486C4.75146 37.5111 3.75 35.7774 3.75 33.9009V5.25ZM15 12.75C15 11.5074 16.0074 10.5 17.25 10.5H31.0962C32.3388 10.5 33.3462 11.5074 33.3462 12.75C33.3462 13.9926 32.3388 15 31.0962 15H19.5V20.1346H31.0962C32.3388 20.1346 33.3462 21.142 33.3462 22.3846V31.0386C33.3462 31.8906 32.8647 32.6697 32.1024 33.051L25.1793 36.5124C24.5459 36.8292 23.8003 36.8292 23.1668 36.5124L16.2438 33.051C15.4815 32.6697 15 31.8906 15 31.0386V29.3077C15 28.0651 16.0074 27.0577 17.25 27.0577C18.4926 27.0577 19.5 28.0651 19.5 29.3077V29.6479L24.1731 31.9845L28.8462 29.6479V24.6346H17.25C16.0074 24.6346 15 23.6273 15 22.3846V12.75Z" fill="white"/>
</svg>
