<svg width="48" height="48" viewBox="0 0 48 48" fill="none" xmlns="http://www.w3.org/2000/svg">
<g clip-path="url(#clip0_16_287)">
<path d="M22.7591 0.306498C23.4597 -0.102166 24.326 -0.102166 25.0266 0.306498L43.6695 11.1815C44.3607 11.5847 44.7858 12.3247 44.7858 13.125V34.875C44.7858 35.6754 44.3607 36.4152 43.6695 36.8184L25.0266 47.6934C24.326 48.1023 23.4597 48.1023 22.7591 47.6934L18.0984 44.9748C17.0251 44.3487 16.6625 42.9708 17.2886 41.8974C17.9148 40.8243 19.2925 40.4616 20.3659 41.0877L23.8929 43.1451L40.2858 33.5826V14.4173L23.8929 4.85484L7.5 14.4173V33.5826L10.8504 35.5371C11.8829 35.8683 13.1583 35.9493 14.0573 35.5521C14.4743 35.3679 14.8509 35.0679 15.149 34.5321C15.4628 33.9681 15.75 33.0294 15.75 31.5V15.75C15.75 14.5074 16.7574 13.5 18 13.5C19.2426 13.5 20.25 14.5074 20.25 15.75V31.5C20.25 33.5706 19.8631 35.3148 19.0814 36.7197C18.2841 38.1528 17.144 39.108 15.8758 39.6684C13.4569 40.737 10.7857 40.299 9.14997 39.7113C9.02058 39.6648 8.89575 39.6066 8.77701 39.5373L4.1163 36.8184C3.42504 36.4152 3 35.6754 3 34.875V13.125C3 12.3247 3.42504 11.5847 4.1163 11.1815L22.7591 0.306498ZM24.7396 15.8497C25.9302 14.4324 27.7895 13.5 30.3126 13.5C32.6541 13.5 34.4376 14.3027 35.6445 15.5794C36.498 16.4825 36.4581 17.9065 35.5548 18.7601C34.6518 19.6138 33.2277 19.5737 32.3742 18.6706C32.1114 18.3926 31.5606 18 30.3126 18C28.9855 18 28.4386 18.4426 28.1853 18.7441C27.8584 19.1332 27.75 19.6255 27.75 19.875C27.75 20.1245 27.8584 20.6168 28.1853 21.0059C28.4386 21.3074 28.9855 21.75 30.3126 21.75C30.5346 21.75 30.7491 21.7822 30.9519 21.8422C32.8104 22.11 34.2267 22.9435 35.1978 24.0997C36.3147 25.4293 36.6876 26.9995 36.6876 28.125C36.6876 29.2505 36.3147 30.8208 35.1978 32.1504C34.0074 33.5676 32.148 34.5 29.625 34.5C27.2835 34.5 25.4999 33.6972 24.293 32.4207C23.4394 31.5174 23.4796 30.0933 24.3827 29.2399C25.2857 28.3862 26.7097 28.4264 27.5634 29.3294C27.8261 29.6074 28.377 30 29.625 30C30.9522 30 31.4991 29.5574 31.7523 29.2559C32.079 28.8668 32.1876 28.3745 32.1876 28.125C32.1876 27.8755 32.079 27.3832 31.7523 26.9941C31.4991 26.6926 30.9522 26.25 29.625 26.25C29.4029 26.25 29.1883 26.2178 28.9856 26.1578C27.1271 25.89 25.7108 25.0565 24.7396 23.9003C23.6228 22.5707 23.25 21.0005 23.25 19.875C23.25 18.7495 23.6228 17.1793 24.7396 15.8497Z" fill="white"/>
</g>
<defs>
<clipPath id="clip0_16_287">
<rect width="48" height="48" fill="white"/>
</clipPath>
</defs>
</svg>
