<svg width="48" height="48" viewBox="0 0 48 48" fill="none" xmlns="http://www.w3.org/2000/svg">
<path d="M42 33C41.999 33.3618 41.8999 33.7166 41.7133 34.0265C41.5266 34.3365 41.2594 34.59 40.94 34.76L25.14 43.64C24.8052 43.8723 24.4075 43.9967 24 43.9967C23.5925 43.9967 23.1948 43.8723 22.86 43.64L7.06 34.76C6.74064 34.59 6.47339 34.3365 6.28673 34.0265C6.10006 33.7166 6.00097 33.3618 6 33V15C6.00097 14.6382 6.10006 14.2834 6.28673 13.9735C6.47339 13.6636 6.74064 13.4101 7.06 13.24L22.86 4.36001C23.1948 4.12775 23.5925 4.0033 24 4.0033C24.4075 4.0033 24.8052 4.12775 25.14 4.36001L40.94 13.24C41.2594 13.4101 41.5266 13.6636 41.7133 13.9735C41.8999 14.2834 41.999 14.6382 42 15V33ZM24 8.30001L10 16.18V31.82L24 39.7L38 31.82V16.18L24 8.30001ZM24 12.46L33.8 18.12L24 23.78L14.2 18.12L24 12.46ZM34 29.78L26 34.4V27.24L34 22.62V29.78ZM22 34.4L14 29.78V22.62L22 27.24V34.4Z" fill="white"/>
</svg>
